<svg width="19" height="22" viewBox="0 0 19 22" fill="none" xmlns="http://www.w3.org/2000/svg">
<path d="M16.6094 20.9961C16.8672 21.2539 17.1953 21.3945 17.582 21.3945C18.3555 21.3945 18.9766 20.7852 18.9766 20.0117C18.9766 19.625 18.8125 19.2734 18.543 19.0039L10.3398 10.9883L18.543 2.99609C18.8125 2.72656 18.9766 2.36328 18.9766 1.98828C18.9766 1.21484 18.3555 0.605469 17.582 0.605469C17.1953 0.605469 16.8672 0.746094 16.6094 1.00391L7.49219 9.91016C7.16406 10.2148 7.01172 10.5898 7 11C7 11.4102 7.16406 11.7617 7.49219 12.0781L16.6094 20.9961Z" fill="#0971B8"/>
<path d="M16.6094 20.9961C16.8672 21.2539 17.1953 21.3945 17.582 21.3945C18.3555 21.3945 18.9766 20.7852 18.9766 20.0117C18.9766 19.625 18.8125 19.2734 18.543 19.0039L10.3398 10.9883L18.543 2.99609C18.8125 2.72656 18.9766 2.36328 18.9766 1.98828C18.9766 1.21484 18.3555 0.605469 17.582 0.605469C17.1953 0.605469 16.8672 0.746094 16.6094 1.00391L7.49219 9.91016C7.16406 10.2148 7.01172 10.5898 7 11C7 11.4102 7.16406 11.7617 7.49219 12.0781L16.6094 20.9961Z" fill="url(#paint0_linear_467_66)"/>
<defs>
<linearGradient id="paint0_linear_467_66" x1="12.9883" y1="0.605469" x2="12.9883" y2="21.3945" gradientUnits="userSpaceOnUse">
<stop stop-color="#5E94E1"/>
<stop offset="1" stop-color="#4271B5"/>
</linearGradient>
</defs>
</svg>
