<svg width="24" height="24" viewBox="0 0 24 24" fill="none" xmlns="http://www.w3.org/2000/svg">
<path d="M12.2424 24C19.3071 24 24 19.1392 24 12.2784C24 11.4928 23.9167 10.8864 23.8009 10.2816H12.244V14.4064H19.1928C18.9088 16.1584 17.0888 19.5792 12.244 19.5792C8.07019 19.5792 4.66191 16.1904 4.66191 12C4.66191 7.8096 8.06856 4.4192 12.244 4.4192C14.6321 4.4192 16.2187 5.4176 17.1214 6.2688L20.4448 3.1424C18.3048 1.1792 15.5495 0 12.2424 0C5.47807 0 0 5.3696 0 12C0 18.6304 5.47807 24 12.2424 24Z" fill="white"/>
</svg>
